<svg width="150" height="149" viewBox="0 0 150 149" fill="none" xmlns="http://www.w3.org/2000/svg">
<path d="M72.2482 50.4337H47.1314C35.0234 50.4337 25.2168 39.7266 25.2168 26.6178V0.100164H0V71.3477H72.3483V50.5338L72.2482 50.4337Z" fill="#00CE84"/>
<path d="M77.7518 92.2615V133.489C77.7518 141.795 83.8559 148.499 91.3609 148.499H150V127.785H95.2635V126.885V120.981V120.08H149.199V105.771H95.2635V104.87V98.5657V97.8653H150V77.3516H91.3609C83.8559 77.3516 77.7518 84.0561 77.7518 92.3616V92.2615Z" fill="#00CE84"/>
<path d="M16.2108 124.983L21.3143 119.179L54.3363 148.099H60.04C66.8446 148.099 72.3483 141.594 72.3483 133.589V76.8513H29.7198L56.1375 99.9667L51.034 105.771L18.012 76.8513H12.3083C5.50372 76.8513 0 83.3556 0 91.3609V148.099H42.6284L16.2108 124.983Z" fill="#00CE84"/>
<path d="M109.773 35.6237H117.478V71.2475H149.8L140.093 20.3135C138.993 14.7098 135.891 9.70647 131.288 6.004C126.584 2.30153 120.48 0 113.776 0C100.567 0 89.7598 8.60573 87.4583 20.1134L77.4516 71.1474H109.773V35.5237V35.6237ZM109.773 18.6124H117.478V28.7191H109.773V18.6124Z" fill="#00CE84"/>
</svg>
